<svg id="close_black_24dp" xmlns="http://www.w3.org/2000/svg" width="31.834" height="31.834" viewBox="0 0 31.834 31.834">
  <path id="Path_2497" data-name="Path 2497" d="M0,0H31.834V31.834H0Z" fill="none"/>
  <path id="Path_2498" data-name="Path 2498" d="M22.508,5.809a1.321,1.321,0,0,0-1.87,0l-6.486,6.473L7.666,5.8A1.322,1.322,0,0,0,5.8,7.666l6.486,6.486L5.8,20.638a1.322,1.322,0,0,0,1.87,1.87l6.486-6.486,6.486,6.486a1.322,1.322,0,0,0,1.87-1.87l-6.486-6.486,6.486-6.486A1.329,1.329,0,0,0,22.508,5.809Z" transform="translate(1.765 1.765)" fill="#05233b"/>
</svg>
