<svg xmlns="http://www.w3.org/2000/svg" width="297.706" height="142.681" viewBox="0 0 297.706 142.681">
  <g id="Group_1425" data-name="Group 1425" transform="translate(2752.966 18305.445)">
    <g id="Artwork_4" data-name="Artwork 4" transform="translate(-2752.966 -18305.445)">
      <g id="Group_1424" data-name="Group 1424" transform="translate(0 0)">
        <g id="Group_1399" data-name="Group 1399" transform="translate(33.004 42.032)">
          <g id="Group_1397" data-name="Group 1397" transform="translate(0 8.142)">
            <g id="Group_1395" data-name="Group 1395" transform="translate(0.974)" opacity="0.5">
              <path id="Path_2500" data-name="Path 2500" d="M336.013,331.568c-5.423-13.316-19.961-24.236-36.758-25.565-15.855-1.254-31.163,5.614-47.089,5.736-25.754.2-47.129-16.83-72.359-21.143-29.321-5.012-61.681,10.171-71.747,33.665-6.5,15.171-2.254,34.585,53.576,46.114s99.08,16.238,142.674,6.537S341.165,344.219,336.013,331.568Z" transform="translate(-105.764 -289.64)" fill="#e2edff" opacity="0.2"/>
            </g>
            <g id="Group_1396" data-name="Group 1396" transform="translate(0 1.967)">
              <path id="Path_2501" data-name="Path 2501" d="M135.574,351.57c20.9-2.712,39.451-15.144,47.454-31.416a46.3,46.3,0,0,0,3.656-10.56l-.473-.114a47.845,47.845,0,0,1-2.149,7.174c-3.261,8.356-9.3,15.861-17.087,21.757a66.722,66.722,0,0,1-27.424,12.113,71.981,71.981,0,0,1-32.03-1.3c-.091-.025-.181-.053-.272-.078-.03.13-.06.26-.089.391A73.011,73.011,0,0,0,135.574,351.57Z" transform="translate(-106.258 -309.481)" fill="#fff"/>
              <path id="Path_2502" data-name="Path 2502" d="M162.838,544.126c15.6,1.738,31.622,2.668,47.034-.622a66.433,66.433,0,0,0,19.666-7.33A51.289,51.289,0,0,0,244.3,523.056a61.229,61.229,0,0,0,7.51-12.883c-.172.015-.344.031-.516.044a63.229,63.229,0,0,1-4.751,8.87,52.276,52.276,0,0,1-14.109,14.744,60.953,60.953,0,0,1-19.755,8.607c-15.124,3.812-31.142,3.246-46.636,1.637-16.951-1.76-33.915-4.741-51.082-4.1A108.583,108.583,0,0,0,99.574,541.6c.007.138.011.276.019.415a103.753,103.753,0,0,1,12.546-1.5C129.157,539.475,146.047,542.255,162.838,544.126Z" transform="translate(-99.574 -490.277)" fill="#fff"/>
              <path id="Path_2503" data-name="Path 2503" d="M1648.967,506.175a81.116,81.116,0,0,1-17.379-4.97c-5.1-2.187-9.9-5.1-13.3-8.994a17.951,17.951,0,0,1-4.646-13.792c.958-9.073,8.054-16.324,17.226-20.636-.234-.037-.47-.069-.705-.1-7.7,3.708-13.836,9.387-16.183,16.854a17.891,17.891,0,0,0,1.354,14.3c2.4,4.3,6.538,7.742,11.217,10.363a63.925,63.925,0,0,0,16.219,6.078,116.262,116.262,0,0,0,21.011,3.03c.569.03,1.14.05,1.71.072q.053-.2.1-.393A117.511,117.511,0,0,1,1648.967,506.175Z" transform="translate(-1433.053 -442.988)" fill="#fff"/>
              <path id="Path_2504" data-name="Path 2504" d="M820.547,360.8a54.252,54.252,0,0,1,3.62-5.547l-.439-.166q-1.427,1.928-2.67,3.949a50.975,50.975,0,0,0-4.926,10.507c-1.322,3.965-2.44,8.322-1.217,12.4a10.738,10.738,0,0,0,7.182,7.225c4.256,1.282,8.881-.048,12.651-1.789a71.852,71.852,0,0,0,11.429-6.969,101.248,101.248,0,0,0,10.107-8.23q1.9-1.767,3.689-3.616l-.505-.127a100.956,100.956,0,0,1-19.8,15.772c-3.79,2.316-8.06,4.66-12.863,5.031a10.805,10.805,0,0,1-10.654-5.5c-2.095-3.971-1.242-8.5-.04-12.561A49.486,49.486,0,0,1,820.547,360.8Z" transform="translate(-729.363 -350.567)" fill="#fff"/>
              <path id="Path_2505" data-name="Path 2505" d="M1831.3,651.149a35.165,35.165,0,0,0,14.4-2.595c-.012-.12-.022-.239-.036-.359a36.72,36.72,0,0,1-12.013,2.559c-4.729.19-9.56-.842-13.083-3.583-3.178-2.473-4.77-6.067-3.554-9.621a8.137,8.137,0,0,1,3.146-4.094,13.193,13.193,0,0,1,7.072-1.754c2.25-.057,4.51.077,6.75-.162a20.679,20.679,0,0,0,4.742-1.086c-.084-.114-.166-.229-.251-.342-.495.175-1,.333-1.51.47-4.615,1.231-9.554.038-14.132,1.256a8.786,8.786,0,0,0-6.559,6.657c-.632,3.178.8,6.279,3.467,8.556A19.147,19.147,0,0,0,1831.3,651.149Z" transform="translate(-1611.942 -598.325)" fill="#fff"/>
              <path id="Path_2506" data-name="Path 2506" d="M1206.709,769.207q-3.209-6.369-6.417-12.737c-1.5-2.97-3.071-6.21-6.3-8.176-3.409-2.076-8.047-2.076-11.856-.806a26,26,0,0,0-10,6.716,46.714,46.714,0,0,0-11.561,18.849,42.717,42.717,0,0,0-1.82,9h.489a44.689,44.689,0,0,1,10.732-24.864,33.759,33.759,0,0,1,9.217-7.958c3.8-2.078,8.887-3.08,13.139-1.315,3.884,1.612,5.728,5.145,7.322,8.3q2.986,5.911,5.959,11.827l7.058,14.009h.512Z" transform="translate(-1032.761 -703.279)" fill="#fff"/>
            </g>
          </g>
          <g id="Group_1398" data-name="Group 1398" transform="translate(126.72)" opacity="0.5">
            <path id="Path_2507" data-name="Path 2507" d="M1191.876,209.3a29.529,29.529,0,0,1-9.769-1.113c-7.639-2.306-17.155,1.473-17.218,8.819-.049,5.7,6.241,9.475,12.069,11.214,10.992,3.28,33.761,1.56,32.689-12.052-.343-4.356-3.121-6.383-8.12-6.864A74.691,74.691,0,0,0,1191.876,209.3Z" transform="translate(-1164.889 -207.509)" fill="#e2edff"/>
          </g>
        </g>
        <g id="Group_1423" data-name="Group 1423" transform="translate(0)">
          <g id="Group_1401" data-name="Group 1401" transform="translate(241.67 35.894)">
            <g id="Group_1400" data-name="Group 1400">
              <path id="Path_2508" data-name="Path 2508" d="M1685.283,286.131c-3.9-1.126-6.571-3.08-9.577-5.942l1.273-2.259c3.157,3.484,4.191,5.37,8.136,5.1Z" transform="translate(-1675.706 -277.93)" fill="#ffb900"/>
            </g>
          </g>
          <g id="Group_1403" data-name="Group 1403" transform="translate(290.778 82.149)">
            <g id="Group_1402" data-name="Group 1402">
              <path id="Path_2509" data-name="Path 2509" d="M1997.9,648.077c-2.9-3.147-4.2-6.378-5.276-10.622l2.475-1.368c.852,4.892.7,7.174,4.453,9.069Z" transform="translate(-1992.622 -636.087)" fill="#007bff"/>
            </g>
          </g>
          <g id="Group_1405" data-name="Group 1405" transform="translate(187.083 49.154)">
            <g id="Group_1404" data-name="Group 1404">
              <path id="Path_2510" data-name="Path 2510" d="M1335.158,384.043c-4.11.851-7.527.362-11.717-.787l-.008-2.654c4.645,1.639,6.55,2.851,9.98.714Z" transform="translate(-1323.433 -380.602)" fill="#14cca1"/>
            </g>
          </g>
          <g id="Group_1407" data-name="Group 1407" transform="translate(84.843 41.013)">
            <g id="Group_1406" data-name="Group 1406">
              <path id="Path_2511" data-name="Path 2511" d="M671.946,318.349a16.623,16.623,0,0,1-7.06,4.729l-1.261-1.511c3.428-1.117,5.088-1.267,6.034-4Z" transform="translate(-663.625 -317.564)" fill="#ff5c33"/>
            </g>
          </g>
          <g id="Group_1409" data-name="Group 1409" transform="translate(13.437 103.345)">
            <g id="Group_1408" data-name="Group 1408">
              <path id="Path_2512" data-name="Path 2512" d="M214.945,805.665c-4.615.193-8.072-.871-12.135-2.738l.837-2.717c4.388,2.444,6.015,4,10.322,2.377Z" transform="translate(-202.81 -800.21)" fill="#007bff"/>
            </g>
          </g>
          <g id="Group_1411" data-name="Group 1411" transform="translate(26.859 32.641)">
            <g id="Group_1410" data-name="Group 1410">
              <path id="Path_2513" data-name="Path 2513" d="M296.56,262.954c-3.522-2.133-5.366-4.749-7.13-8.342l2.4-1.871c1.625,4.241,1.8,6.358,6.033,7.136Z" transform="translate(-289.43 -252.741)" fill="#14cca1"/>
            </g>
          </g>
          <g id="Group_1413" data-name="Group 1413" transform="translate(41.489 64.139)">
            <g id="Group_1412" data-name="Group 1412">
              <path id="Path_2514" data-name="Path 2514" d="M397.416,498.886c-3.991,2.322-7.755,3-12.576,3.25l-1-2.779c5.48.1,7.928.71,10.727-2.722Z" transform="translate(-383.843 -496.634)" fill="#007bff"/>
            </g>
          </g>
          <g id="Group_1415" data-name="Group 1415" transform="translate(99.132)">
            <g id="Group_1414" data-name="Group 1414">
              <path id="Path_2515" data-name="Path 2515" d="M768.915,2.356c-4,1.961-7.668,2.357-12.318,2.274l-.757-2.738c5.258.469,7.566,1.217,10.5-1.892Z" transform="translate(-755.84)" fill="#ffb900"/>
            </g>
          </g>
          <g id="Group_1416" data-name="Group 1416" transform="translate(161.072 1.067)">
            <path id="Path_2516" data-name="Path 2516" d="M1163.425,16.316a19.463,19.463,0,0,1-7.858-6.178l1.359-1.875c2.433,3.385,3.153,5.153,6.67,5.292Z" transform="translate(-1155.567 -8.263)" fill="#14cca1"/>
          </g>
          <g id="Group_1418" data-name="Group 1418" transform="translate(219.805 10.692)">
            <g id="Group_1417" data-name="Group 1417">
              <path id="Path_2517" data-name="Path 2517" d="M1535.654,92.069c3.651-1.792,5.676-4.132,7.7-7.391l-2.233-1.889c-1.932,3.873-2.269,5.843-6.519,6.326Z" transform="translate(-1534.598 -82.789)" fill="#ff5c33"/>
            </g>
          </g>
          <g id="Group_1420" data-name="Group 1420" transform="translate(92.253 106.569)" opacity="0.837">
            <g id="Group_1419" data-name="Group 1419">
              <path id="Path_2518" data-name="Path 2518" d="M719.866,834.858c-3.68-1.827-5.968-4.258-8.419-7.658l1.707-2.027c2.481,4.047,3.15,6.117,7.142,6.555Z" transform="translate(-711.447 -825.174)" fill="#ff5c33"/>
            </g>
          </g>
          <g id="Group_1422" data-name="Group 1422" transform="translate(213.109 88.718)">
            <g id="Group_1421" data-name="Group 1421">
              <path id="Path_2519" data-name="Path 2519" d="M1500.682,687c-1.465,3.8-3.727,6.322-6.979,9.115l-2.318-1.419c3.924-2.9,6-3.8,5.982-7.74Z" transform="translate(-1491.385 -686.952)" fill="#ff5c33"/>
            </g>
          </g>
          <circle id="Ellipse_56" data-name="Ellipse 56" cx="1.5" cy="1.5" r="1.5" transform="translate(69.667 23.859)" fill="#ff5c33"/>
          <ellipse id="Ellipse_57" data-name="Ellipse 57" cx="1.55" cy="1.291" rx="1.55" ry="1.291" transform="translate(192.853 24.538)" fill="#ffb900"/>
          <ellipse id="Ellipse_58" data-name="Ellipse 58" cx="1.55" cy="1.291" rx="1.55" ry="1.291" transform="translate(233.348 63.885)" fill="#ff5c33"/>
          <circle id="Ellipse_59" data-name="Ellipse 59" cx="1.5" cy="1.5" r="1.5" transform="translate(71.667 76.859)" fill="#14cca1"/>
          <path id="Path_2520" data-name="Path 2520" d="M0,0,4.018.365l.365,4.018L.365,4.018Z" transform="matrix(0.707, -0.707, 0.707, 0.707, 0, 66.942)" fill="#ffb900"/>
          <path id="Path_2521" data-name="Path 2521" d="M0,0,4.018.365l.365,4.018L.365,4.018Z" transform="translate(269.119 62.711) rotate(-45)" fill="#14cca1"/>
        </g>
      </g>
    </g>
    <g id="verified_black_24dp" transform="translate(-2662.356 -18298.219)">
      <g id="Group_1373" data-name="Group 1373" transform="translate(0 0)">
        <rect id="Rectangle_587" data-name="Rectangle 587" width="115.409" height="115.409" fill="none"/>
        <rect id="Rectangle_588" data-name="Rectangle 588" width="115.409" height="115.409" fill="none"/>
      </g>
      <g id="Group_1374" data-name="Group 1374" transform="translate(6.346 9.753)">
        <path id="Path_2499" data-name="Path 2499" d="M103.376,49.489,92.022,36.737,93.6,19.873,76.8,16.125,68.01,1.5,52.188,8.173,36.366,1.5l-8.8,14.579-16.8,3.7,1.582,16.91L1,49.489,12.354,62.24,10.772,79.15l16.8,3.748,8.8,14.579,15.822-6.718L68.01,97.432l8.8-14.579L93.6,79.1,92.022,62.24ZM40,67.816,28.921,56.847a4.494,4.494,0,0,1,0-6.444l.326-.32a4.751,4.751,0,0,1,6.608,0l7.492,7.4L67.312,33.9a4.751,4.751,0,0,1,6.608,0l.326.32a4.494,4.494,0,0,1,0,6.444L46.7,67.816A4.867,4.867,0,0,1,40,67.816Z" transform="translate(-1 -1.5)" fill="#00e096"/>
      </g>
    </g>
  </g>
</svg>
